<svg xmlns="http://www.w3.org/2000/svg" width="85" height="84" viewBox="0 0 85 84" fill="none">
  <path d="M38.5439 9.72448V4.36964C38.5439 3.3045 38.9721 2.28298 39.7344 1.52981C40.4966 0.776642 41.5304 0.353516 42.6084 0.353516C43.6864 0.353516 44.7202 0.776642 45.4824 1.52981C46.2447 2.28298 46.6729 3.3045 46.6729 4.36964V9.72448C46.6729 10.7896 46.2447 11.8111 45.4824 12.5643C44.7202 13.3175 43.6864 13.7406 42.6084 13.7406C41.5304 13.7406 40.4966 13.3175 39.7344 12.5643C38.9721 11.8111 38.5439 10.7896 38.5439 9.72448ZM65.6407 41.8535C65.6407 46.3546 64.2898 50.7547 61.759 54.4972C59.2282 58.2398 55.6311 61.1567 51.4225 62.8792C47.2139 64.6017 42.5828 65.0524 38.115 64.1743C33.6472 63.2962 29.5433 61.1287 26.3221 57.9459C23.101 54.7631 20.9074 50.708 20.0187 46.2934C19.13 41.8788 19.5861 37.3029 21.3294 33.1444C23.0726 28.9859 26.0247 25.4316 29.8124 22.9309C33.6 20.4302 38.053 19.0955 42.6084 19.0955C48.715 19.1017 54.5697 21.5014 58.8877 25.768C63.2058 30.0346 65.6344 35.8196 65.6407 41.8535ZM57.5116 41.8535C57.5116 38.941 56.6376 36.0939 55 33.6723C53.3624 31.2507 51.0348 29.3632 48.3116 28.2486C45.5884 27.1341 42.5919 26.8425 39.7009 27.4107C36.81 27.9789 34.1545 29.3814 32.0702 31.4408C29.986 33.5002 28.5666 36.1241 27.9915 38.9807C27.4165 41.8372 27.7116 44.798 28.8396 47.4888C29.9676 50.1796 31.8778 52.4795 34.3286 54.0976C36.7794 55.7157 39.6608 56.5793 42.6084 56.5793C46.5596 56.5749 50.3477 55.022 53.1416 52.2613C55.9355 49.5007 57.5071 45.7577 57.5116 41.8535ZM16.7005 21.9369C17.0786 22.3104 17.5274 22.6068 18.0214 22.809C18.5154 23.0111 19.0448 23.1152 19.5795 23.1152C20.1142 23.1152 20.6437 23.0111 21.1376 22.809C21.6316 22.6068 22.0805 22.3104 22.4586 21.9369C22.8366 21.5633 23.1365 21.1198 23.3412 20.6317C23.5458 20.1436 23.6511 19.6204 23.6511 19.0921C23.6511 18.5638 23.5458 18.0406 23.3412 17.5525C23.1365 17.0644 22.8366 16.6209 22.4586 16.2473L18.394 12.2312C17.6305 11.4767 16.5949 11.0529 15.515 11.0529C14.4352 11.0529 13.3995 11.4767 12.636 12.2312C11.8724 12.9857 11.4434 14.009 11.4434 15.076C11.4434 16.143 11.8724 17.1663 12.636 17.9207L16.7005 21.9369ZM16.7005 61.7635L12.636 65.7796C12.2579 66.1532 11.958 66.5967 11.7534 67.0848C11.5488 67.5729 11.4434 68.096 11.4434 68.6244C11.4434 69.1527 11.5488 69.6758 11.7534 70.1639C11.958 70.652 12.2579 71.0955 12.636 71.4691C13.3995 72.2236 14.4352 72.6475 15.515 72.6475C16.0497 72.6475 16.5791 72.5434 17.0731 72.3412C17.5671 72.139 18.016 71.8427 18.394 71.4691L22.4586 67.453C23.2221 66.6985 23.6511 65.6752 23.6511 64.6082C23.6511 63.5412 23.2221 62.518 22.4586 61.7635C21.695 61.009 20.6594 60.5851 19.5795 60.5851C18.4997 60.5851 17.4641 61.009 16.7005 61.7635ZM65.6407 23.1116C66.1746 23.112 66.7033 23.0085 67.1968 22.8069C67.6902 22.6053 68.1386 22.3097 68.5163 21.9369L72.5808 17.9207C72.9589 17.5472 73.2588 17.1037 73.4634 16.6155C73.668 16.1274 73.7734 15.6043 73.7734 15.076C73.7734 14.5477 73.668 14.0245 73.4634 13.5364C73.2588 13.0483 72.9589 12.6048 72.5808 12.2312C72.2027 11.8576 71.7539 11.5613 71.2599 11.3591C70.7659 11.1569 70.2365 11.0529 69.7018 11.0529C69.1671 11.0529 68.6376 11.1569 68.1437 11.3591C67.6497 11.5613 67.2008 11.8576 66.8228 12.2312L62.7582 16.2473C62.1864 16.8091 61.7966 17.5262 61.6384 18.3074C61.4801 19.0886 61.5606 19.8987 61.8697 20.6346C62.1787 21.3705 62.7022 21.999 63.3737 22.4401C64.0452 22.8811 64.8343 23.1149 65.6407 23.1116ZM68.5163 61.7702C67.7527 61.0157 66.7171 60.5918 65.6373 60.5918C64.5574 60.5918 63.5218 61.0157 62.7582 61.7702C61.9947 62.5246 61.5657 63.5479 61.5657 64.6149C61.5657 65.6819 61.9947 66.7052 62.7582 67.4597L66.8228 71.4758C67.5863 72.2303 68.6219 72.6542 69.7018 72.6542C70.7816 72.6542 71.8173 72.2303 72.5808 71.4758C73.3444 70.7213 73.7734 69.698 73.7734 68.6311C73.7734 67.5641 73.3444 66.5408 72.5808 65.7863L68.5163 61.7702ZM14.1568 41.8535C14.1568 40.7884 13.7286 39.7669 12.9663 39.0137C12.2041 38.2605 11.1702 37.8374 10.0923 37.8374H4.67291C3.59494 37.8374 2.56111 38.2605 1.79887 39.0137C1.03662 39.7669 0.608398 40.7884 0.608398 41.8535C0.608398 42.9187 1.03662 43.9402 1.79887 44.6933C2.56111 45.4465 3.59494 45.8696 4.67291 45.8696H10.0923C11.1702 45.8696 12.2041 45.4465 12.9663 44.6933C13.7286 43.9402 14.1568 42.9187 14.1568 41.8535ZM42.6084 69.9664C41.5304 69.9664 40.4966 70.3895 39.7344 71.1427C38.9721 71.8959 38.5439 72.9174 38.5439 73.9826V79.3374C38.5439 80.4025 38.9721 81.424 39.7344 82.1772C40.4966 82.9304 41.5304 83.3535 42.6084 83.3535C43.6864 83.3535 44.7202 82.9304 45.4824 82.1772C46.2447 81.424 46.6729 80.4025 46.6729 79.3374V73.9826C46.6729 72.9174 46.2447 71.8959 45.4824 71.1427C44.7202 70.3895 43.6864 69.9664 42.6084 69.9664ZM80.5439 37.8374H75.1245C74.0466 37.8374 73.0127 38.2605 72.2505 39.0137C71.4882 39.7669 71.06 40.7884 71.06 41.8535C71.06 42.9187 71.4882 43.9402 72.2505 44.6933C73.0127 45.4465 74.0466 45.8696 75.1245 45.8696H80.5439C81.6219 45.8696 82.6557 45.4465 83.4179 44.6933C84.1802 43.9402 84.6084 42.9187 84.6084 41.8535C84.6084 40.7884 84.1802 39.7669 83.4179 39.0137C82.6557 38.2605 81.6219 37.8374 80.5439 37.8374Z" fill="black" fill-opacity="0.5"/>
</svg>