<svg width="27" height="27" viewBox="0 0 27 27" fill="none" xmlns="http://www.w3.org/2000/svg">
<path d="M5.1934 25.4327H21.8066M5.1934 16.2011H21.8066M25.3692 6.78484C25.1815 6.01053 24.7958 5.29831 24.2499 4.71802C23.7041 4.13773 23.0168 3.7093 22.2556 3.47472C21.4943 3.24015 20.6852 3.20749 19.9075 3.37995C19.1298 3.55241 18.4102 3.92406 17.8194 4.45847C17.4969 3.5717 16.9094 2.80566 16.1367 2.26435C15.364 1.72304 14.4434 1.43268 13.5 1.43268C12.5566 1.43268 11.636 1.72304 10.8633 2.26435C10.0906 2.80566 9.50306 3.5717 9.18057 4.45847C8.58975 3.92406 7.87022 3.55241 7.09253 3.37995C6.31484 3.20749 5.50569 3.24015 4.74443 3.47472C3.98316 3.7093 3.29591 4.13773 2.75006 4.71802C2.20422 5.29831 1.81852 6.01053 1.63079 6.78484C1.48413 7.38909 1.46053 8.01669 1.56142 8.63025C1.6623 9.24382 1.8856 9.8308 2.21802 10.3562C2.55044 10.8817 2.98518 11.3348 3.49635 11.6887C4.00752 12.0426 4.58466 12.29 5.1934 12.4161V18.9706C5.1934 19.4602 5.38788 19.9298 5.73406 20.2761C6.08023 20.6224 6.54975 20.8169 7.03931 20.8169H19.9607C20.4503 20.8169 20.9198 20.6224 21.2659 20.2761C21.6121 19.9298 21.8066 19.4602 21.8066 18.9706V12.4161C22.4153 12.29 22.9925 12.0426 23.5037 11.6887C24.0148 11.3348 24.4496 10.8817 24.782 10.3562C25.1144 9.8308 25.3377 9.24382 25.4386 8.63025C25.5395 8.01669 25.5159 7.38909 25.3692 6.78484Z" stroke="black" stroke-width="1.4" stroke-linecap="round" stroke-linejoin="round"/>
</svg>
