<svg width="25" height="25" viewBox="0 0 25 25" fill="none" xmlns="http://www.w3.org/2000/svg">
<g id="Iconly/Curved/Category">
<g id="Category">
<path id="Stroke 1" fill-rule="evenodd" clip-rule="evenodd" d="M21.5005 7.10649C21.5005 9.13509 19.8553 10.7803 17.8267 10.7803C15.7981 10.7803 14.1538 9.13509 14.1538 7.10649C14.1538 5.07789 15.7981 3.43269 17.8267 3.43269C19.8553 3.43269 21.5005 5.07789 21.5005 7.10649Z" stroke="black" stroke-width="1.5" stroke-linecap="round" stroke-linejoin="round"/>
<path id="Stroke 3" fill-rule="evenodd" clip-rule="evenodd" d="M10.8467 7.10649C10.8467 9.13509 9.2024 10.7803 7.1729 10.7803C5.1452 10.7803 3.5 9.13509 3.5 7.10649C3.5 5.07789 5.1452 3.43269 7.1729 3.43269C9.2024 3.43269 10.8467 5.07789 10.8467 7.10649Z" stroke="black" stroke-width="1.5" stroke-linecap="round" stroke-linejoin="round"/>
<path id="Stroke 5" fill-rule="evenodd" clip-rule="evenodd" d="M21.5005 17.6946C21.5005 19.7232 19.8553 21.3675 17.8267 21.3675C15.7981 21.3675 14.1538 19.7232 14.1538 17.6946C14.1538 15.666 15.7981 14.0208 17.8267 14.0208C19.8553 14.0208 21.5005 15.666 21.5005 17.6946Z" stroke="black" stroke-width="1.5" stroke-linecap="round" stroke-linejoin="round"/>
<path id="Stroke 7" fill-rule="evenodd" clip-rule="evenodd" d="M10.8467 17.6946C10.8467 19.7232 9.2024 21.3675 7.1729 21.3675C5.1452 21.3675 3.5 19.7232 3.5 17.6946C3.5 15.666 5.1452 14.0208 7.1729 14.0208C9.2024 14.0208 10.8467 15.666 10.8467 17.6946Z" stroke="black" stroke-width="1.5" stroke-linecap="round" stroke-linejoin="round"/>
</g>
</g>
</svg>
