<svg width="27" height="32" viewBox="0 0 27 32" fill="none" xmlns="http://www.w3.org/2000/svg">
<g filter="url(#filter0_d_231_1409)">
<path d="M7.02377 8.22446C10.9143 6.91598 15.4724 6.61584 17.5 6.66196C19.5276 6.70808 20.3831 7.46019 21 8.7453C22 10.8286 21.789 16.0246 20 17.6902C18.212 19.3558 10.8301 19.5141 8.37015 17.6902C5.77115 15.7621 7.129 10.5078 7.044 6.91509C7.095 4.90467 5 4.57863 5 4.57863" stroke="black" stroke-width="1.5" stroke-linecap="round" stroke-linejoin="round"/>
<path d="M14.5 11.8703H17.273" stroke="black" stroke-width="1.5" stroke-linecap="round" stroke-linejoin="round"/>
<path fill-rule="evenodd" clip-rule="evenodd" d="M8.76375 21.8988C9.06375 21.8988 9.30775 22.153 9.30775 22.4655C9.30775 22.779 9.06375 23.0332 8.76375 23.0332C8.46275 23.0332 8.21875 22.779 8.21875 22.4655C8.21875 22.153 8.46275 21.8988 8.76375 21.8988Z" fill="black" stroke="black" stroke-width="1.5" stroke-linecap="round" stroke-linejoin="round"/>
<path fill-rule="evenodd" clip-rule="evenodd" d="M19.0953 21.8988C19.3963 21.8988 19.6403 22.153 19.6403 22.4655C19.6403 22.779 19.3963 23.0332 19.0953 23.0332C18.7953 23.0332 18.5513 22.779 18.5513 22.4655C18.5513 22.153 18.7953 21.8988 19.0953 21.8988Z" fill="black" stroke="black" stroke-width="1.5" stroke-linecap="round" stroke-linejoin="round"/>
</g>
<defs>
<filter id="filter0_d_231_1409" x="-2.5" y="0.932686" width="32" height="33" filterUnits="userSpaceOnUse" color-interpolation-filters="sRGB">
<feFlood flood-opacity="0" result="BackgroundImageFix"/>
<feColorMatrix in="SourceAlpha" type="matrix" values="0 0 0 0 0 0 0 0 0 0 0 0 0 0 0 0 0 0 127 0" result="hardAlpha"/>
<feOffset dy="4"/>
<feGaussianBlur stdDeviation="2"/>
<feComposite in2="hardAlpha" operator="out"/>
<feColorMatrix type="matrix" values="0 0 0 0 0 0 0 0 0 0 0 0 0 0 0 0 0 0 0.25 0"/>
<feBlend mode="normal" in2="BackgroundImageFix" result="effect1_dropShadow_231_1409"/>
<feBlend mode="normal" in="SourceGraphic" in2="effect1_dropShadow_231_1409" result="shape"/>
</filter>
</defs>
</svg>
