<svg preserveAspectRatio="none" width="30" height="40" viewBox="0 0 30 40" fill="none" xmlns="http://www.w3.org/2000/svg">
<path d="M15 28.3636C17.3452 28.3608 19.5935 27.4787 21.2518 25.9108C22.9101 24.3429 23.8431 22.2173 23.8462 20V8.36364C23.8462 6.14546 22.9142 4.01814 21.2552 2.44965C19.5962 0.881166 17.3461 0 15 0C12.6539 0 10.4038 0.881166 8.74483 2.44965C7.08585 4.01814 6.15385 6.14546 6.15385 8.36364V20C6.1569 22.2173 7.08988 24.3429 8.7482 25.9108C10.4065 27.4787 12.6548 28.3608 15 28.3636ZM8.46154 8.36364C8.46154 6.72412 9.15041 5.15175 10.3766 3.99243C11.6028 2.83312 13.2659 2.18182 15 2.18182C16.7341 2.18182 18.3972 2.83312 19.6234 3.99243C20.8496 5.15175 21.5385 6.72412 21.5385 8.36364V20C21.5385 21.6395 20.8496 23.2119 19.6234 24.3712C18.3972 25.5305 16.7341 26.1818 15 26.1818C13.2659 26.1818 11.6028 25.5305 10.3766 24.3712C9.15041 23.2119 8.46154 21.6395 8.46154 20V8.36364ZM16.1538 34.1364V38.9091C16.1538 39.1984 16.0323 39.4759 15.8159 39.6805C15.5995 39.8851 15.306 40 15 40C14.694 40 14.4005 39.8851 14.1841 39.6805C13.9677 39.4759 13.8462 39.1984 13.8462 38.9091V34.1364C10.0809 33.8579 6.56495 32.2483 3.99884 29.6284C1.43273 27.0086 0.00494145 23.5707 0 20C0 19.7107 0.121565 19.4332 0.337954 19.2286C0.554342 19.024 0.847827 18.9091 1.15385 18.9091C1.45987 18.9091 1.75335 19.024 1.96974 19.2286C2.18613 19.4332 2.30769 19.7107 2.30769 20C2.30769 23.1826 3.64491 26.2348 6.02518 28.4853C8.40545 30.7357 11.6338 32 15 32C18.3662 32 21.5945 30.7357 23.9748 28.4853C26.3551 26.2348 27.6923 23.1826 27.6923 20C27.6923 19.7107 27.8139 19.4332 28.0303 19.2286C28.2466 19.024 28.5401 18.9091 28.8462 18.9091C29.1522 18.9091 29.4457 19.024 29.662 19.2286C29.8784 19.4332 30 19.7107 30 20C29.9951 23.5707 28.5673 27.0086 26.0012 29.6284C23.4351 32.2483 19.9191 33.8579 16.1538 34.1364Z" fill="black"/>
</svg>
