<svg preserveAspectRatio="none" width="85" height="83" viewBox="0 0 85 83" fill="none" xmlns="http://www.w3.org/2000/svg">
<path d="M38.5439 9.37097V4.01613C38.5439 2.95099 38.9721 1.92947 39.7344 1.1763C40.4966 0.423127 41.5304 0 42.6084 0C43.6864 0 44.7202 0.423127 45.4824 1.1763C46.2447 1.92947 46.6729 2.95099 46.6729 4.01613V9.37097C46.6729 10.4361 46.2447 11.4576 45.4824 12.2108C44.7202 12.964 43.6864 13.3871 42.6084 13.3871C41.5304 13.3871 40.4966 12.964 39.7344 12.2108C38.9721 11.4576 38.5439 10.4361 38.5439 9.37097ZM65.6407 41.5C65.6407 46.0011 64.2898 50.4012 61.759 54.1437C59.2282 57.8863 55.6311 60.8032 51.4225 62.5257C47.2139 64.2482 42.5828 64.6989 38.115 63.8208C33.6472 62.9427 29.5433 60.7752 26.3221 57.5924C23.101 54.4096 20.9074 50.3545 20.0187 45.9399C19.13 41.5252 19.5861 36.9494 21.3294 32.7909C23.0726 28.6324 26.0247 25.0781 29.8124 22.5774C33.6 20.0767 38.053 18.7419 42.6084 18.7419C48.715 18.7481 54.5697 21.1478 58.8877 25.4145C63.2058 29.6811 65.6344 35.4661 65.6407 41.5ZM57.5116 41.5C57.5116 38.5875 56.6376 35.7404 55 33.3188C53.3624 30.8971 51.0348 29.0097 48.3116 27.8951C45.5884 26.7806 42.5919 26.4889 39.7009 27.0571C36.81 27.6253 34.1545 29.0278 32.0702 31.0873C29.986 33.1467 28.5666 35.7706 27.9915 38.6271C27.4165 41.4837 27.7116 44.4445 28.8396 47.1353C29.9676 49.8261 31.8778 52.126 34.3286 53.7441C36.7794 55.3622 39.6608 56.2258 42.6084 56.2258C46.5596 56.2214 50.3477 54.6685 53.1416 51.9078C55.9355 49.1472 57.5071 45.4042 57.5116 41.5ZM16.7005 21.5833C17.0786 21.9569 17.5274 22.2533 18.0214 22.4554C18.5154 22.6576 19.0448 22.7617 19.5795 22.7617C20.1142 22.7617 20.6437 22.6576 21.1376 22.4554C21.6316 22.2533 22.0805 21.9569 22.4586 21.5833C22.8366 21.2098 23.1365 20.7663 23.3412 20.2782C23.5458 19.7901 23.6511 19.2669 23.6511 18.7386C23.6511 18.2103 23.5458 17.6871 23.3412 17.199C23.1365 16.7109 22.8366 16.2674 22.4586 15.8938L18.394 11.8777C17.6305 11.1232 16.5949 10.6994 15.515 10.6994C14.4352 10.6994 13.3995 11.1232 12.636 11.8777C11.8724 12.6322 11.4434 13.6555 11.4434 14.7225C11.4434 15.7895 11.8724 16.8127 12.636 17.5672L16.7005 21.5833ZM16.7005 61.41L12.636 65.4261C12.2579 65.7997 11.958 66.2432 11.7534 66.7313C11.5488 67.2194 11.4434 67.7425 11.4434 68.2709C11.4434 68.7992 11.5488 69.3223 11.7534 69.8104C11.958 70.2985 12.2579 70.742 12.636 71.1156C13.3995 71.8701 14.4352 72.2939 15.515 72.2939C16.0497 72.2939 16.5791 72.1899 17.0731 71.9877C17.5671 71.7855 18.016 71.4892 18.394 71.1156L22.4586 67.0995C23.2221 66.345 23.6511 65.3217 23.6511 64.2547C23.6511 63.1877 23.2221 62.1644 22.4586 61.41C21.695 60.6555 20.6594 60.2316 19.5795 60.2316C18.4997 60.2316 17.4641 60.6555 16.7005 61.41ZM65.6407 22.7581C66.1746 22.7585 66.7033 22.6549 67.1968 22.4534C67.6902 22.2518 68.1386 21.9562 68.5163 21.5833L72.5808 17.5672C72.9589 17.1936 73.2588 16.7501 73.4634 16.262C73.668 15.7739 73.7734 15.2508 73.7734 14.7225C73.7734 14.1941 73.668 13.671 73.4634 13.1829C73.2588 12.6948 72.9589 12.2513 72.5808 11.8777C72.2027 11.5041 71.7539 11.2078 71.2599 11.0056C70.7659 10.8034 70.2365 10.6994 69.7018 10.6994C69.1671 10.6994 68.6377 10.8034 68.1437 11.0056C67.6497 11.2078 67.2008 11.5041 66.8228 11.8777L62.7582 15.8938C62.1864 16.4556 61.7966 17.1726 61.6384 17.9539C61.4801 18.7351 61.5607 19.5452 61.8697 20.2811C62.1787 21.017 62.7022 21.6455 63.3737 22.0865C64.0452 22.5276 64.8343 22.7614 65.6407 22.7581ZM68.5163 61.4167C67.7527 60.6622 66.7171 60.2383 65.6373 60.2383C64.5574 60.2383 63.5218 60.6622 62.7582 61.4167C61.9947 62.1711 61.5657 63.1944 61.5657 64.2614C61.5657 65.3284 61.9947 66.3517 62.7582 67.1062L66.8228 71.1223C67.5863 71.8768 68.6219 72.3006 69.7018 72.3006C70.7816 72.3006 71.8173 71.8768 72.5808 71.1223C73.3444 70.3678 73.7734 69.3445 73.7734 68.2775C73.7734 67.2105 73.3444 66.1873 72.5808 65.4328L68.5163 61.4167ZM14.1568 41.5C14.1568 40.4349 13.7286 39.4133 12.9663 38.6602C12.2041 37.907 11.1702 37.4839 10.0923 37.4839H4.67291C3.59494 37.4839 2.56111 37.907 1.79887 38.6602C1.03662 39.4133 0.608398 40.4349 0.608398 41.5C0.608398 42.5651 1.03662 43.5867 1.79887 44.3398C2.56111 45.093 3.59494 45.5161 4.67291 45.5161H10.0923C11.1702 45.5161 12.2041 45.093 12.9663 44.3398C13.7286 43.5867 14.1568 42.5651 14.1568 41.5ZM42.6084 69.6129C41.5304 69.6129 40.4966 70.036 39.7344 70.7892C38.9721 71.5424 38.5439 72.5639 38.5439 73.629V78.9839C38.5439 80.049 38.9721 81.0705 39.7344 81.8237C40.4966 82.5769 41.5304 83 42.6084 83C43.6864 83 44.7202 82.5769 45.4824 81.8237C46.2447 81.0705 46.6729 80.049 46.6729 78.9839V73.629C46.6729 72.5639 46.2447 71.5424 45.4824 70.7892C44.7202 70.036 43.6864 69.6129 42.6084 69.6129ZM80.5439 37.4839H75.1245C74.0466 37.4839 73.0127 37.907 72.2505 38.6602C71.4882 39.4133 71.06 40.4349 71.06 41.5C71.06 42.5651 71.4882 43.5867 72.2505 44.3398C73.0127 45.093 74.0466 45.5161 75.1245 45.5161H80.5439C81.6219 45.5161 82.6557 45.093 83.4179 44.3398C84.1802 43.5867 84.6084 42.5651 84.6084 41.5C84.6084 40.4349 84.1802 39.4133 83.4179 38.6602C82.6557 37.907 81.6219 37.4839 80.5439 37.4839Z" fill="black" fill-opacity="0.5"/>
</svg>
