<svg width="27" height="27" viewBox="0 0 27 27" fill="none" xmlns="http://www.w3.org/2000/svg">
<path d="M6.75 21.375V11.25C6.75 9.45979 7.46116 7.7429 8.72703 6.47703C9.9929 5.21116 11.7098 4.5 13.5 4.5C15.2902 4.5 17.0071 5.21116 18.273 6.47703C19.5388 7.7429 20.25 9.45979 20.25 11.25V21.375M6.75 21.375H20.25M6.75 21.375H4.5M20.25 21.375H22.5M12.375 24.75H14.625" stroke="black" stroke-linecap="round" stroke-linejoin="round"/>
<path d="M13.5 4.5C14.1213 4.5 14.625 3.99632 14.625 3.375C14.625 2.75368 14.1213 2.25 13.5 2.25C12.8787 2.25 12.375 2.75368 12.375 3.375C12.375 3.99632 12.8787 4.5 13.5 4.5Z" stroke="black"/>
</svg>
