<svg preserveAspectRatio="none" width="46" height="47" viewBox="0 0 46 47" fill="none" xmlns="http://www.w3.org/2000/svg">
<rect y="0.415619" width="45.67" height="45.6684" rx="17" stroke="#E2E2E2"/>
<path d="M31.335 23.2498C31.335 23.6257 31.1908 23.989 30.9214 24.2521C30.6582 24.5214 30.2948 24.6717 29.9188 24.6717H24.2542H21.4157H15.7511C15.3751 24.6717 15.0117 24.5214 14.7485 24.2521C14.4853 23.989 14.335 23.6257 14.335 23.2498C14.335 22.874 14.4853 22.517 14.7485 22.2476C15.0117 21.9846 15.3751 21.8342 15.7511 21.8342H21.4157H24.2542H29.9188C30.2948 21.8342 30.6582 21.9846 30.9214 22.2476C31.1908 22.517 31.335 22.874 31.335 23.2498Z" fill="#FF7269"/>
</svg>
