<svg preserveAspectRatio="none" width="47" height="46" viewBox="0 0 47 46" fill="none" xmlns="http://www.w3.org/2000/svg">
<rect x="0.56543" width="45.67" height="45.6684" rx="17" stroke="#E2E2E2"/>
<path d="M31.9004 22.8342C31.9004 23.2101 31.7563 23.5734 31.4868 23.8364C31.2236 24.1058 30.8602 24.2561 30.4842 24.2561H24.8197V29.9186C24.8197 30.2944 24.6693 30.6577 24.3998 30.9208C24.1367 31.1839 23.7795 31.3342 23.4035 31.3342C23.0276 31.3342 22.6641 31.1839 22.4009 30.9208C22.1315 30.6577 21.9811 30.2944 21.9811 29.9186V24.2561H16.3165C15.9406 24.2561 15.5771 24.1058 15.314 23.8364C15.0508 23.5734 14.9004 23.2101 14.9004 22.8342C14.9004 22.4584 15.0508 22.1014 15.314 21.832C15.5771 21.5689 15.9406 21.4186 16.3165 21.4186H21.9811V15.7561C21.9811 15.3803 22.1315 15.017 22.4009 14.7539C22.6641 14.4846 23.0276 14.3342 23.4035 14.3342C23.7795 14.3342 24.1367 14.4846 24.3998 14.7539C24.6693 15.017 24.8197 15.3803 24.8197 15.7561V21.4186H30.4842C30.8602 21.4186 31.2236 21.5689 31.4868 21.832C31.7563 22.1014 31.9004 22.4584 31.9004 22.8342Z" fill="#53B175"/>
</svg>
