<svg width="21" height="21" viewBox="0 0 21 21" fill="none" xmlns="http://www.w3.org/2000/svg">
<path fill-rule="evenodd" clip-rule="evenodd" d="M5.84403 0.432686C5.0493 0.432686 4.50459 0.432686 4.01843 0.556407C3.51526 0.685878 3.04677 0.913125 2.64337 1.22339C2.23997 1.53365 1.91068 1.92 1.67689 2.35734C1.45166 2.7778 1.3455 3.2792 1.18973 4.01036L0.57458 6.89222C0.465636 7.39742 0.476161 7.91886 0.605415 8.41983C0.734668 8.9208 0.979505 9.3891 1.32268 9.79176V12.3452C1.32268 14.055 1.32268 15.4094 1.47448 16.469C1.63125 17.5592 1.96065 18.442 2.7028 19.1387C3.44495 19.8345 4.38652 20.1434 5.55035 20.2904C6.68044 20.4327 8.12504 20.4327 9.94767 20.4327H11.052C12.8756 20.4327 14.3202 20.4327 15.4503 20.2904C16.6131 20.1434 17.5547 19.8345 18.2978 19.1387C19.04 18.442 19.3694 17.5592 19.5261 16.469C19.6779 15.4085 19.6779 14.055 19.6779 12.3452V9.79269C20.0211 9.38984 20.2658 8.92135 20.3949 8.42021C20.524 7.91907 20.5343 7.39749 20.4251 6.89222L19.8099 4.01036C19.6551 3.2792 19.548 2.7778 19.3237 2.35734C19.0898 1.9199 18.7604 1.5335 18.3568 1.22323C17.9532 0.912955 17.4846 0.685762 16.9812 0.556407C16.496 0.432686 15.9513 0.432686 15.1556 0.432686H5.84403ZM16.7193 11.1304C17.2243 11.1312 17.7243 11.0369 18.1897 10.8532V12.2932C18.1897 14.0671 18.1877 15.3276 18.0508 16.2838C17.9168 17.2187 17.6648 17.7583 17.2451 18.1518C16.8254 18.5452 16.25 18.7815 15.2509 18.9071C14.7444 18.966 14.2351 19.0014 13.7249 19.0132V16.4494C13.7249 16.0401 13.7249 15.6866 13.6971 15.3983C13.6673 15.0913 13.6019 14.788 13.4253 14.5025C13.2295 14.1842 12.9479 13.9198 12.6087 13.7359C12.3041 13.5713 11.9806 13.5099 11.6532 13.482C11.3457 13.4559 10.9686 13.4559 10.5321 13.4559H10.4676C10.031 13.4559 9.65498 13.4559 9.34641 13.482C9.019 13.5099 8.69654 13.5713 8.39194 13.7359C8.05236 13.9197 7.77038 14.1841 7.57439 14.5025C7.39877 14.788 7.33329 15.0913 7.30352 15.3973C7.27574 15.6876 7.27574 16.0401 7.27574 16.4485V19.0132C6.76487 19.0015 6.25493 18.9661 5.74779 18.9071C4.75065 18.7815 4.17519 18.5452 3.7555 18.1518C3.33482 17.7583 3.08379 17.2187 2.94985 16.2829C2.81194 15.3276 2.81095 14.0671 2.81095 12.2932V10.8532C3.6038 11.1672 4.48729 11.218 5.31511 10.9971C6.14294 10.7761 6.86547 10.2967 7.36305 9.63827C7.72349 10.1013 8.19559 10.4778 8.74082 10.7371C9.28605 10.9964 9.88895 11.1312 10.5003 11.1304C11.1117 11.1312 11.7146 10.9964 12.2598 10.7371C12.805 10.4778 13.2771 10.1013 13.6376 9.63827C13.9868 10.0997 14.4488 10.4759 14.985 10.7355C15.5211 10.9951 16.1158 11.1305 16.7193 11.1304ZM8.76401 19.0355C9.14897 19.0373 9.56172 19.0373 10.0042 19.0373H10.9964C11.4389 19.0373 11.8507 19.0373 12.2366 19.0355V16.4792C12.2366 16.0318 12.2356 15.7425 12.2148 15.5238C12.195 15.3145 12.1602 15.2383 12.1364 15.2001C12.0712 15.0943 11.9774 15.0064 11.8646 14.9452C11.8239 14.9229 11.7425 14.8913 11.5193 14.8718C11.1801 14.8522 10.8401 14.8454 10.5003 14.8513C10.0231 14.8513 9.71451 14.8513 9.48135 14.8718C9.25712 14.8904 9.17675 14.9229 9.13607 14.9452C9.02284 15.0063 8.92874 15.0942 8.86322 15.2001C8.8404 15.2373 8.80568 15.3145 8.78584 15.5238C8.765 15.7425 8.76401 16.0318 8.76401 16.4792V19.0355ZM7.19637 1.82803H5.95416C5.00763 1.82803 4.67921 1.83455 4.41331 1.90245C4.11147 1.98007 3.8304 2.11634 3.58837 2.3024C3.34633 2.48846 3.14873 2.72015 3.00839 2.98245C2.88437 3.21408 2.81392 3.51362 2.62839 4.38431L2.03506 7.16571C1.97183 7.45189 1.97152 7.74716 2.03417 8.03345C2.09681 8.31975 2.22109 8.59105 2.39939 8.83078C2.5777 9.0705 2.80629 9.2736 3.07118 9.42766C3.33607 9.58172 3.6317 9.6835 3.93999 9.72677C4.24827 9.77004 4.56273 9.7539 4.86413 9.67933C5.16553 9.60476 5.44754 9.47333 5.69291 9.29308C5.93828 9.11283 6.14185 8.88754 6.29118 8.631C6.4405 8.37446 6.53244 8.09205 6.56137 7.80106L6.62983 7.16292L6.6338 7.12385L7.19835 1.82803H7.19637ZM8.11016 7.29315L8.69356 1.82803H12.3071L12.8865 7.26245C12.919 7.5734 12.882 7.88729 12.7778 8.18408C12.6737 8.48087 12.5047 8.75406 12.2817 8.98621C12.0587 9.21837 11.7865 9.4044 11.4826 9.53244C11.1786 9.66048 10.8495 9.72771 10.5163 9.72985C10.183 9.73199 9.85297 9.669 9.54716 9.54488C9.24134 9.42076 8.96647 9.23825 8.74008 9.00898C8.51369 8.77971 8.34075 8.50872 8.23229 8.21329C8.12384 7.91787 8.08224 7.60449 8.11016 7.29315ZM16.5873 1.90245C16.3214 1.83455 15.993 1.82803 15.0465 1.82803H13.8023L14.4402 7.80013C14.4701 8.09029 14.5627 8.37171 14.7123 8.62725C14.8619 8.8828 15.0654 9.10712 15.3104 9.28655C15.5555 9.46599 15.8369 9.59678 16.1376 9.67096C16.4382 9.74515 16.7519 9.76118 17.0594 9.71807C17.3669 9.67496 17.6618 9.57362 17.9262 9.42021C18.1906 9.26681 18.4189 9.06455 18.5972 8.82576C18.7756 8.58698 18.9002 8.31665 18.9635 8.03126C19.0268 7.74586 19.0275 7.45137 18.9656 7.16571L18.3732 4.38431C18.1867 3.51362 18.1163 3.21408 17.9932 2.98245C17.8528 2.72006 17.655 2.4883 17.4128 2.30223C17.1706 2.11617 16.8893 1.97996 16.5873 1.90245Z" fill="black"/>
</svg>
