<svg preserveAspectRatio="none" width="20" height="22" viewBox="0 0 20 22" fill="none" xmlns="http://www.w3.org/2000/svg">
<path fill-rule="evenodd" clip-rule="evenodd" d="M10 4.75C5.71979 4.75 2.25 8.21979 2.25 12.5C2.25 16.7802 5.71979 20.25 10 20.25C14.2802 20.25 17.75 16.7802 17.75 12.5C17.75 8.21979 14.2802 4.75 10 4.75ZM0.75 12.5C0.75 7.39137 4.89137 3.25 10 3.25C15.1086 3.25 19.25 7.39137 19.25 12.5C19.25 17.6086 15.1086 21.75 10 21.75C4.89137 21.75 0.75 17.6086 0.75 12.5Z" fill="#1C1B1E"/>
<path fill-rule="evenodd" clip-rule="evenodd" d="M6.25 1C6.25 0.585786 6.58579 0.25 7 0.25H13C13.4142 0.25 13.75 0.585786 13.75 1C13.75 1.41421 13.4142 1.75 13 1.75H7C6.58579 1.75 6.25 1.41421 6.25 1Z" fill="#1C1B1E"/>
<path fill-rule="evenodd" clip-rule="evenodd" d="M10 7.75C10.4142 7.75 10.75 8.08579 10.75 8.5V12.5C10.75 12.9142 10.4142 13.25 10 13.25C9.58579 13.25 9.25 12.9142 9.25 12.5V8.5C9.25 8.08579 9.58579 7.75 10 7.75Z" fill="#1C1B1E"/>
<path fill-rule="evenodd" clip-rule="evenodd" d="M9.25 12.5C9.25 12.0858 9.58579 11.75 10 11.75H14C14.4142 11.75 14.75 12.0858 14.75 12.5C14.75 12.9142 14.4142 13.25 14 13.25H10C9.58579 13.25 9.25 12.9142 9.25 12.5Z" fill="#1C1B1E"/>
<path fill-rule="evenodd" clip-rule="evenodd" d="M10 0.25C10.4142 0.25 10.75 0.585786 10.75 1V3C10.75 3.41421 10.4142 3.75 10 3.75C9.58579 3.75 9.25 3.41421 9.25 3V1C9.25 0.585786 9.58579 0.25 10 0.25Z" fill="#1C1B1E"/>
</svg>
