<svg preserveAspectRatio="none" width="15" height="14" viewBox="0 0 15 14" fill="none" xmlns="http://www.w3.org/2000/svg">
<path d="M14.2421 12.2321C14.4393 12.4321 14.5488 12.6952 14.5379 12.9689C14.5379 13.2426 14.4283 13.4953 14.2202 13.6953C14.0231 13.8848 13.7493 14.0005 13.4645 14.0005C13.1798 14.0005 12.906 13.9058 12.6979 13.7163L6.49895 7.7582C6.40038 7.66346 6.32371 7.54766 6.26895 7.42134C6.21419 7.29502 6.18134 7.15817 6.18134 7.02133C6.18134 6.88448 6.21419 6.74763 6.26895 6.61078C6.32371 6.48446 6.40038 6.36867 6.49895 6.27393L12.6979 0.315802C12.7965 0.221061 12.9169 0.136847 13.0484 0.0842138C13.1907 0.0315802 13.3331 0 13.4755 0C13.6179 0 13.7712 0.0210535 13.9026 0.0736871C14.0341 0.126321 14.1545 0.210535 14.2641 0.305275C14.3626 0.400016 14.4393 0.526336 14.494 0.652657C14.5598 0.778978 14.5817 0.915825 14.5817 1.0632C14.5817 1.20005 14.5488 1.33689 14.494 1.46321C14.4393 1.58954 14.3517 1.70533 14.2421 1.8106L8.82081 7.02133L9.85032 8.00031L14.2421 12.2321Z" fill="#B3B3B3" stroke="#B3B3B3" stroke-width="0.1"/>
<path d="M0.759197 1.76852C0.562057 1.56851 0.452535 1.30535 0.463487 1.03165C0.463487 0.757957 0.57301 0.505315 0.781101 0.305307C0.978241 0.115826 1.25205 3.22402e-05 1.5368 3.2265e-05C1.82156 3.22899e-05 2.09536 0.0947731 2.30346 0.284254L8.50239 6.24238C8.60096 6.33712 8.67763 6.45292 8.73239 6.57924C8.78715 6.70556 8.82001 6.84241 8.82001 6.97925C8.82001 7.1161 8.78715 7.25295 8.73239 7.3898C8.67763 7.51612 8.60096 7.63191 8.50239 7.72665L2.30345 13.6848C2.20488 13.7795 2.08441 13.8637 1.95298 13.9164C1.81061 13.969 1.66823 14.0006 1.52585 14.0006C1.38347 14.0006 1.23014 13.9795 1.09871 13.9269C0.967287 13.8743 0.846813 13.79 0.737291 13.6953C0.638721 13.6006 0.562056 13.4742 0.507295 13.3479C0.441582 13.2216 0.419678 13.0848 0.419678 12.9374C0.419678 12.8005 0.452534 12.6637 0.507295 12.5374C0.562056 12.411 0.649674 12.2952 0.759196 12.19L6.18053 6.97925L5.15102 6.00027L0.759197 1.76852Z" fill="#B3B3B3" stroke="#B3B3B3" stroke-width="0.1"/>
</svg>
